<svg xmlns="http://www.w3.org/2000/svg" xmlns:xlink="http://www.w3.org/1999/xlink" version="1.1" x="0px" y="0px" viewBox="0 0 66 82.5" style="enable-background:new 0 0 66 66;" xml:space="preserve"><g><path d="M18.4,40.3C15.2,39.9,10,39,7.3,37.4v17.1c0,0.1,0,0.2,0.1,0.3L18.4,40.3z"/><path d="M33,41.2c-3.2,0-7.1-0.2-10.9-0.5L33,58L45,40.6C41.3,40.9,36.9,41.2,33,41.2z"/><path d="M46.9,41.3l-12,17.5c11.3-0.2,18.8-1.6,22-3L46.9,41.3z"/><path d="M58.7,28.2c0,1.5-9.1,4.3-25.7,4.3S7.3,29.7,7.3,28.2c0-1.5,9.1-4.3,25.7-4.3c0.5,0,1,0,1.5,0c0.2,1.2,0.8,2.4,1.7,3.3   c1.9,2.1,5.7,2.5,8.2,0c0.8-0.7,1.3-1.7,1.5-2.6C55.6,25.7,58.7,27.6,58.7,28.2z"/><path d="M9.1,55.8c3.3,1.3,10.8,2.8,22.1,3l-11-17.5L9.1,55.8z"/><path d="M7.3,30.8v4c0,3.2,19.9,4.3,25.7,4.3c16.7,0,25.7-2.9,25.7-4.3v-4c-5,2.9-18.1,3.7-25.7,3.7C25.3,34.6,12.2,33.7,7.3,30.8z   "/><path d="M33,60.8C33,60.8,33,60.8,33,60.8c-7.7,0-20.7-0.8-25.7-3.7v3.6c0,1.5,9.1,4.3,25.7,4.3s25.7-2.9,25.7-4.3v-3.6   C53.8,60,40.7,60.8,33,60.8C33,60.8,33,60.8,33,60.8z"/><path d="M48.6,40.2l10.1,14.6c0.1-0.1,0.1-0.2,0.1-0.3V37.4C56.2,38.9,51.5,39.7,48.6,40.2z"/><g><path d="M27.6,14c1.5,1.5,1.5,3.9,0,5.4c-1.5,1.5-3.9,1.5-5.4,0c-1.3-1.3-1.5-3.1-0.6-4.6L9.4,2.7c-0.4-0.4-0.4-1,0-1.4    c0.4-0.4,1-0.4,1.4,0L23,13.4C24.4,12.6,26.4,12.8,27.6,14z"/><path d="M55.7,9.1L43.6,21.2c0.8,1.5,0.6,3.4-0.6,4.6c-1.5,1.5-3.9,1.5-5.4,0c-1.5-1.5-1.5-3.9,0-5.4c1.2-1.2,3.2-1.4,4.6-0.6    L54.3,7.7c0.4-0.4,1-0.4,1.4,0S56.1,8.7,55.7,9.1z"/></g></g><text x="0" y="81" fill="#000000" font-size="5px" font-weight="bold" font-family="'Helvetica Neue', Helvetica, Arial-Unicode, Arial, Sans-serif">Created by ProSymbols</text><text x="0" y="86" fill="#000000" font-size="5px" font-weight="bold" font-family="'Helvetica Neue', Helvetica, Arial-Unicode, Arial, Sans-serif">from the Noun Project</text></svg>